inDegrees=no
num_controls=7
num_derivatives=13
num_iterations=128
num_multipliers=7
num_parameters=0
num_slacks=7
num_states=26
objective=6.282301
objective_accelerations=0.741984
objective_balance=0.051417
objective_effort=0.632018
objective_height=4.740246
objective_ligament=0.116637
solver_duration=1341.589220
status=Solve_Succeeded
success=true
DataType=double
version=3
OpenSimVersion=4.4-2022-07-23-0e9fedc
endheader
time	/jointset/ground_pelvis/pelvis_tilt/value	/jointset/ground_pelvis/pelvis_tx/value	/jointset/ground_pelvis/pelvis_ty/value	/jointset/hip_l/hip_flexion_l/value	/jointset/hip_l/hip_adduction_l/value	/jointset/hip_l/hip_rotation_l/value	/jointset/back/lumbar_extension/value	/jointset/patellofemoral_l/patellar_flexion_l/value	/jointset/knee_l/knee_flexion_l/value	/jointset/knee_l/knee_adduction_l/value	/jointset/knee_l/knee_rotation_l/value	/jointset/ankle_l/ankle_angle_l/value	/jointset/subtalar_l/subtalar_angle_l/value	/jointset/ground_pelvis/pelvis_tilt/speed	/jointset/ground_pelvis/pelvis_tx/speed	/jointset/ground_pelvis/pelvis_ty/speed	/jointset/hip_l/hip_flexion_l/speed	/jointset/hip_l/hip_adduction_l/speed	/jointset/hip_l/hip_rotation_l/speed	/jointset/back/lumbar_extension/speed	/jointset/patellofemoral_l/patellar_flexion_l/speed	/jointset/knee_l/knee_flexion_l/speed	/jointset/knee_l/knee_adduction_l/speed	/jointset/knee_l/knee_rotation_l/speed	/jointset/ankle_l/ankle_angle_l/speed	/jointset/subtalar_l/subtalar_angle_l/speed	/forceset/tau_hip_flexion_l	/forceset/tau_hip_adduction_l	/forceset/tau_hip_rotation_l	/forceset/tau_knee_flexion_l	/forceset/tau_ankle_angle_l	/forceset/tau_subtalar_angle_l	/forceset/tau_lumbar_extension	lambda_cid13_p0	lambda_cid13_p1	lambda_cid13_p2	lambda_cid13_p3	lambda_cid13_p4	lambda_cid13_p5	lambda_cid14_p0	/jointset/ground_pelvis/pelvis_tilt/accel	/jointset/ground_pelvis/pelvis_tx/accel	/jointset/ground_pelvis/pelvis_ty/accel	/jointset/hip_l/hip_flexion_l/accel	/jointset/hip_l/hip_adduction_l/accel	/jointset/hip_l/hip_rotation_l/accel	/jointset/back/lumbar_extension/accel	/jointset/patellofemoral_l/patellar_flexion_l/accel	/jointset/knee_l/knee_flexion_l/accel	/jointset/knee_l/knee_adduction_l/accel	/jointset/knee_l/knee_rotation_l/accel	/jointset/ankle_l/ankle_angle_l/accel	/jointset/subtalar_l/subtalar_angle_l/accel	gamma_cid13_p0	gamma_cid13_p1	gamma_cid13_p2	gamma_cid13_p3	gamma_cid13_p4	gamma_cid13_p5	gamma_cid14_p0
0.5	-0.1922032054022044	-0.08706513610703483	0.7685393308922666	1.148329999975854	-0.3241232375156796	-0.06955022647220771	-0.8106551316818286	0.9729200679145199	0.9729200679145199	-0.08373018860735354	-0.1744948125921704	0.08313236411765682	-0.003966082283343142	-0.3736394146110505	-0.2330205293590681	-0.5542878145450898	2.167772818653925	-0.009615237907932587	0.5780701229958232	-0.8219069933182104	1.919306792428654	1.91930679242872	0.1972585542786735	0.0001223700762492053	0.2492550716057744	0.06734160243633389	-0.3404403582649592	0.01612203214785959	-0.006403517170514507	-0.2314712615685987	0.1409571750586506	0.04550778522085398	0.3679373112393539	0.8641374061978659	-20.24959794950246	3.155840721127965	-16.4064821308721	-702.5427130932626	-67.32626280558603	-7.605194824373751	0.5912545999496911	0.9503264150578463	-0.2353263018153879	-1.863249569187629	0.3859376018412935	-0.5522692381976703	2.222628795940714	-1.493433813796797	-1.493433813796781	-0.1906011101171623	-0.001679133973592606	-0.2936548887327555	0.3410985347947496	-3.785738931086863e-07	-2.139169675127255e-07	2.169605371933327e-06	2.310879430532447e-07	-3.959964179971694e-07	5.17045981376679e-07	-3.341282414606346e-07
0.51	-0.1959093322878455	-0.08934776669577768	0.7629859403318086	1.169911227150664	-0.3242013592661613	-0.06379587295583176	-0.8187625175833358	0.9920355119630155	0.9920355119629609	-0.08177075081103374	-0.1744938636240303	0.08560924490412068	-0.003277322387688469	-0.3675320480057529	-0.2235029736844888	-0.5562642018225485	2.148184527200257	-0.006017310516092422	0.5727349870528543	-0.7994959349085027	1.903511685755722	1.903511685755721	0.194624692088927	6.540314695989595e-05	0.246067663032915	0.07038681045224265	-0.3489503575068235	0.01569903638838567	-0.006505622333952959	-0.2351076693883121	0.1421484995405162	0.04540806689825252	0.375691054974276	0.8800314690658032	-20.11058160114747	3.021175676440303	-16.49771602123944	-708.5756504562463	-67.04533393506598	-6.844555309982717	0.6285265366960228	0.9529075786300025	-0.1599581988856816	-2.049882233333246	0.3452345852458029	-0.5342823994389607	2.261482174576709	-1.663032063236439	-1.663032063246476	-0.3004530890248165	-0.007565643304215239	-0.3392930246029094	0.2824822535525004	-3.657711403796358e-07	-2.098408401657667e-07	2.114719934124405e-06	2.233415919391368e-07	-3.75642279622458e-07	5.599751082945172e-07	-3.285179643295974e-07
0.52	-0.1995527757382564	-0.09153513424077998	0.7574165532469409	1.191287918750958	-0.3242437988872459	-0.05809690012437143	-0.8266435653385272	1.01098490835092	1.010984908350854	-0.07983778649964225	-0.1744934563593601	0.08805264976824323	-0.002558860348162206	-0.3611027275653877	-0.2139679206109555	-0.5574871194269625	2.126865703751541	-0.002478812028579842	0.5669939860261656	-0.7766393640551594	1.886097260314988	1.88609726031492	0.1919638572742915	1.402938177624116e-05	0.2425598871384402	0.07328203121068731	-0.3574603567487435	0.01527604062874727	-0.006607727496376634	-0.2387440772080508	0.1433398240223311	0.04530834857543956	0.3834447987091809	0.8938028274811585	-19.97565975792221	2.892266698875567	-16.64401742019331	-714.6713537055748	-66.83779790490151	-6.124653048272097	0.6556453669631878	0.9538258948487456	-0.08463236720639658	-2.209355968197289	0.3740518209758739	-0.6334422549416641	2.311731284667765	-1.817297567357354	-1.817297567357357	-0.1959956350949183	-0.0005605011525368553	-0.357728353055724	0.3111010833019328	-3.486371408520023e-07	-1.795506115467268e-07	2.05757814596608e-06	2.176775674035405e-07	-3.505046618777168e-07	5.982703062270674e-07	-3.178697078505176e-07
0.53	-0.2031303311035646	-0.09362719555394133	0.7518386993984254	1.212442985764947	-0.3242511224902505	-0.05245733738137618	-0.8342939544816786	1.029752273709838	1.029752273709861	-0.07793144212591659	-0.1744935572992511	0.0904594242977928	-0.001812159690983608	-0.3543527283243602	-0.2044541968860441	-0.5579575596715332	2.103870681093831	0.0009996092039562677	0.5608556470566852	-0.7533802478698015	1.867119686715716	1.867119686715685	0.189296723296858	-3.944642917854396e-05	0.2387424771293341	0.07602731414826792	-0.36596630959985	0.01488235214090748	-0.006648582969814547	-0.2419316871945089	0.1436254900373807	0.04508815189701098	0.3910177862397368	0.6167582964610906	-19.74008578380486	2.750269199847816	-16.40659486014202	-720.5775210527031	-66.47312063041818	-5.446585774942908	0.6929845340910068	0.9487103223137646	-0.009403722547691468	-2.386173761453868	0.3323166739243777	-0.6137498555476287	2.341734291135884	-1.976343513613677	-1.976343513608002	-0.303344133490126	-0.008104289129523438	-0.4016216160536529	0.2514127334097988	-3.279642652757652e-07	-1.228667007393658e-07	2.010963808697437e-06	2.150192895890514e-07	-3.223541620377384e-07	6.32019057640389e-07	-3.032032224413217e-07
0.54	-0.2066387250101749	-0.09562440668765297	0.7462599103735711	1.233359782882984	-0.3242241460010182	-0.04688110205566475	-0.8417100059618418	1.048322192081272	1.048322192081403	-0.07605202346280349	-0.1744942656308379	0.09282644986900489	-0.001038972037544741	-0.347270435826579	-0.1949978847210144	-0.557674154694677	2.079211724560301	0.004381206417815807	0.5543285025833347	-0.7297718314578009	1.846607862820383	1.84660786282039	0.186578715142496	-0.0001074489626290063	0.2346100954716035	0.07857943046279002	-0.3744722624509763	0.01448866365292165	-0.006689438442518895	-0.2451192971809805	0.1439111560523834	0.04486795521839536	0.3985907737703029	0.3369346448820791	-19.50837317223553	2.613855469024638	-16.21969761894247	-726.5525526027674	-66.17946892440229	-4.811035200038407	0.7221040183139262	0.9423435828724928	0.06613667707900367	-2.542142743361362	0.3546870172406355	-0.7112033557157321	2.381591329996222	-2.124147626569516	-2.124147626569522	-0.2061704704805747	-0.003465845651705025	-0.420722682780498	0.2724677586902529	-3.033760374755411e-07	-3.698126921301058e-08	1.975996863902484e-06	2.156865187851491e-07	-2.90870260730689e-07	6.607376980111597e-07	-2.840910369392315e-07
